<svg width="27" height="27" viewBox="0 0 27 27" fill="none" xmlns="http://www.w3.org/2000/svg">
<g clip-path="url(#clip0_1_266)">
<path d="M16.875 4.5C17.4717 4.5 18.044 4.73705 18.466 5.15901C18.8879 5.58097 19.125 6.15326 19.125 6.75V7.875H20.835C21.1722 7.87504 21.5052 7.95089 21.8091 8.09694C22.1131 8.24299 22.3804 8.45549 22.5911 8.71875L24.2561 10.8011C24.5757 11.2002 24.7499 11.6961 24.75 12.2074V16.875C24.75 17.4717 24.5129 18.044 24.091 18.466C23.669 18.8879 23.0967 19.125 22.5 19.125H21.375C21.375 20.0201 21.0194 20.8786 20.3865 21.5115C19.7536 22.1444 18.8951 22.5 18 22.5C17.1049 22.5 16.2464 22.1444 15.6135 21.5115C14.9806 20.8786 14.625 20.0201 14.625 19.125H11.25C11.25 19.5682 11.1627 20.0071 10.9931 20.4166C10.8235 20.826 10.5749 21.1981 10.2615 21.5115C9.94809 21.8249 9.57603 22.0735 9.16656 22.2431C8.75708 22.4127 8.31821 22.5 7.875 22.5C7.43179 22.5 6.99292 22.4127 6.58344 22.2431C6.17397 22.0735 5.80191 21.8249 5.48851 21.5115C5.17512 21.1981 4.92652 20.826 4.75691 20.4166C4.5873 20.0071 4.5 19.5682 4.5 19.125C3.90326 19.125 3.33097 18.8879 2.90901 18.466C2.48705 18.044 2.25 17.4717 2.25 16.875V6.75C2.25 6.15326 2.48705 5.58097 2.90901 5.15901C3.33097 4.73705 3.90326 4.5 4.5 4.5H16.875ZM7.875 18C7.57663 18 7.29048 18.1185 7.0795 18.3295C6.86853 18.5405 6.75 18.8266 6.75 19.125C6.75 19.4234 6.86853 19.7095 7.0795 19.9205C7.29048 20.1315 7.57663 20.25 7.875 20.25C8.17337 20.25 8.45952 20.1315 8.6705 19.9205C8.88147 19.7095 9 19.4234 9 19.125C9 18.8266 8.88147 18.5405 8.6705 18.3295C8.45952 18.1185 8.17337 18 7.875 18ZM18 18C17.7016 18 17.4155 18.1185 17.2045 18.3295C16.9935 18.5405 16.875 18.8266 16.875 19.125C16.875 19.4234 16.9935 19.7095 17.2045 19.9205C17.4155 20.1315 17.7016 20.25 18 20.25C18.2984 20.25 18.5845 20.1315 18.7955 19.9205C19.0065 19.7095 19.125 19.4234 19.125 19.125C19.125 18.8266 19.0065 18.5405 18.7955 18.3295C18.5845 18.1185 18.2984 18 18 18ZM20.835 10.125H19.125V14.625H22.5V12.2063L20.835 10.125Z" fill="#4F4F4F"/>
</g>
<defs>
<clipPath id="clip0_1_266">
<rect width="27" height="27" fill="white"/>
</clipPath>
</defs>
</svg>
