<svg width="16" height="16" viewBox="0 0 16 16" fill="none" xmlns="http://www.w3.org/2000/svg">
<path d="M12.6133 1.34001C12.48 0.946672 12.1067 0.666672 11.6667 0.666672H4.33333C3.89333 0.666672 3.52667 0.946672 3.38667 1.34001L2.07333 5.12001C2.02667 5.26 2 5.40667 2 5.56001V10.3333C2 10.8867 2.44667 11.3333 3 11.3333C3.55333 11.3333 4 10.8867 4 10.3333V10H12V10.3333C12 10.88 12.4467 11.3333 13 11.3333C13.5467 11.3333 14 10.8867 14 10.3333V5.56001C14 5.41334 13.9733 5.26 13.9267 5.12001L12.6133 1.34001ZM4.33333 8.00001C3.78 8.00001 3.33333 7.55334 3.33333 7.00001C3.33333 6.44667 3.78 6.00001 4.33333 6.00001C4.88667 6.00001 5.33333 6.44667 5.33333 7.00001C5.33333 7.55334 4.88667 8.00001 4.33333 8.00001ZM11.6667 8.00001C11.1133 8.00001 10.6667 7.55334 10.6667 7.00001C10.6667 6.44667 11.1133 6.00001 11.6667 6.00001C12.22 6.00001 12.6667 6.44667 12.6667 7.00001C12.6667 7.55334 12.22 8.00001 11.6667 8.00001ZM3.33333 4.66667L4.18 2.12001C4.27333 1.85334 4.52667 1.66667 4.81333 1.66667H11.1867C11.4733 1.66667 11.7267 1.85334 11.82 2.12001L12.6667 4.66667H3.33333ZM4.66667 13.3333H7.33333V12L11.3333 14H8.66667V15.3333L4.66667 13.3333Z" fill="black"/>
</svg>
