<svg width="18" height="18" viewBox="0 0 18 18" fill="none" xmlns="http://www.w3.org/2000/svg">
<path d="M5.0625 2.25C4.51549 2.25 3.99089 2.4673 3.60409 2.85409C3.2173 3.24089 3 3.76549 3 4.3125V15.375H2.8125C2.66332 15.375 2.52024 15.4343 2.41475 15.5398C2.30926 15.6452 2.25 15.7883 2.25 15.9375C2.25 16.0867 2.30926 16.2298 2.41475 16.3352C2.52024 16.4407 2.66332 16.5 2.8125 16.5H12.9375C13.0867 16.5 13.2298 16.4407 13.3352 16.3352C13.4407 16.2298 13.5 16.0867 13.5 15.9375C13.5 15.7883 13.4407 15.6452 13.3352 15.5398C13.2298 15.4343 13.0867 15.375 12.9375 15.375H12.75V14.0228C13.0639 14.1841 13.414 14.2621 13.7667 14.2491C14.1193 14.2362 14.4628 14.1328 14.764 13.9489C15.0652 13.765 15.3141 13.5068 15.4868 13.199C15.6594 12.8912 15.7501 12.5442 15.75 12.1912V7.81275C15.75 7.36649 15.6053 6.93226 15.3375 6.57525L14.5125 5.475C14.423 5.35565 14.2897 5.27675 14.142 5.25565C13.9944 5.23456 13.8443 5.27299 13.725 5.3625C13.6057 5.45201 13.5268 5.58527 13.5057 5.73295C13.4846 5.88064 13.523 6.03065 13.6125 6.15L14.4375 7.25025C14.559 7.41225 14.625 7.61025 14.625 7.81275V12.1912C14.625 12.3139 14.6008 12.4353 14.5539 12.5486C14.507 12.6619 14.4382 12.7648 14.3515 12.8515C14.2648 12.9382 14.1619 13.007 14.0486 13.0539C13.9353 13.1008 13.8139 13.125 13.6912 13.125C13.5686 13.125 13.4472 13.1008 13.3339 13.0539C13.2206 13.007 13.1177 12.9382 13.031 12.8515C12.9443 12.7648 12.8755 12.6619 12.8286 12.5486C12.7817 12.4353 12.7575 12.3139 12.7575 12.1912V10.875C12.7574 10.8446 12.7549 10.8143 12.75 10.7843V4.3125C12.75 4.04165 12.6967 3.77345 12.593 3.52322C12.4894 3.27298 12.3374 3.04561 12.1459 2.85409C11.9544 2.66257 11.727 2.51065 11.4768 2.407C11.2266 2.30335 10.9584 2.25 10.6875 2.25H5.0625ZM5.25 5.0625C5.25 4.91332 5.30926 4.77024 5.41475 4.66475C5.52024 4.55926 5.66332 4.5 5.8125 4.5H9.9375C10.0867 4.5 10.2298 4.55926 10.3352 4.66475C10.4407 4.77024 10.5 4.91332 10.5 5.0625V7.6875C10.5 7.83668 10.4407 7.97976 10.3352 8.08525C10.2298 8.19074 10.0867 8.25 9.9375 8.25H5.8125C5.66332 8.25 5.52024 8.19074 5.41475 8.08525C5.30926 7.97976 5.25 7.83668 5.25 7.6875V5.0625Z" fill="black"/>
</svg>
