<svg width="25" height="25" viewBox="0 0 25 25" fill="none" xmlns="http://www.w3.org/2000/svg">
<path d="M20.3125 1.25C20.3125 0.46875 19.6875 0 19.0625 0H18.75C16.0938 0 14.0625 2.96875 14.0625 7.34375V8.75C14.0625 10.3125 14.8437 11.7188 16.25 12.5C15.7812 14.375 15.625 16.4062 15.625 16.4062V22.6562C15.625 23.9062 16.7188 25 17.9688 25C19.2188 25 20.3125 23.9062 20.3125 22.6562V16.4062C20.3125 15.7812 20.1562 14.2188 19.8438 12.8125C20.1562 12.5 20.3125 12.1875 20.3125 11.7188V1.25ZM11.25 0H10.9375V5.46875C10.9375 5.9375 10.625 6.25 10.1562 6.25C9.6875 6.25 9.375 5.9375 9.375 5.46875V0.78125C9.375 0.3125 9.0625 0 8.59375 0C8.125 0 7.8125 0.3125 7.8125 0.78125V5.46875C7.8125 5.9375 7.5 6.25 7.03125 6.25C6.5625 6.25 6.25 5.9375 6.25 5.46875V0H5.9375C5.3125 0 4.6875 0.625 4.6875 1.25V7.03125C4.6875 8.59375 5.625 10 7.03125 10.625C6.40625 13.125 6.25 16.4062 6.25 16.4062V22.6562C6.25 23.9062 7.34375 25 8.59375 25C9.84375 25 10.9375 23.9062 10.9375 22.6562V16.4062C10.9375 15.625 10.7812 12.8125 10.3125 10.625C11.5625 10 12.5 8.59375 12.5 7.03125V1.25C12.5 0.625 11.875 0 11.25 0Z" fill="#4F4F4F"/>
</svg>
