<svg width="18" height="18" viewBox="0 0 18 18" fill="none" xmlns="http://www.w3.org/2000/svg">
<path fill-rule="evenodd" clip-rule="evenodd" d="M3.42857 5.14286C3.42857 4.57454 3.65434 4.02949 4.0562 3.62763C4.45806 3.22576 5.00311 3 5.57143 3C6.13975 3 6.68479 3.22576 7.08666 3.62763C7.48852 4.02949 7.71429 4.57454 7.71429 5.14286C7.71429 5.71118 7.48852 6.25622 7.08666 6.65809C6.68479 7.05995 6.13975 7.28571 5.57143 7.28571C5.00311 7.28571 4.45806 7.05995 4.0562 6.65809C3.65434 6.25622 3.42857 5.71118 3.42857 5.14286ZM12.4286 3C11.8603 3 11.3152 3.22576 10.9133 3.62763C10.5115 4.02949 10.2857 4.57454 10.2857 5.14286C10.2857 5.71118 10.5115 6.25622 10.9133 6.65809C11.3152 7.05995 11.8603 7.28571 12.4286 7.28571C12.9969 7.28571 13.5419 7.05995 13.9438 6.65809C14.3457 6.25622 14.5714 5.71118 14.5714 5.14286C14.5714 4.57454 14.3457 4.02949 13.9438 3.62763C13.5419 3.22576 12.9969 3 12.4286 3ZM10.812 9.30686C11.1403 8.69314 11.6554 8.14286 12.4286 8.14286C13.2017 8.14286 13.716 8.69314 14.0451 9.30686C14.3786 9.92829 14.5886 10.7306 14.7257 11.496C14.8629 12.2683 14.9314 13.0363 14.9657 13.608C14.9835 13.9049 14.995 14.2021 15 14.4994V14.5706L14.5714 14.5714H15C15 14.6851 14.9548 14.7941 14.8745 14.8745C14.7941 14.9548 14.6851 15 14.5714 15H10.2857C10.172 15 10.063 14.9548 9.98267 14.8745C9.9023 14.7941 9.85714 14.6851 9.85714 14.5714V14.4977L9.86143 14.3023C9.88647 13.3615 9.97668 12.4235 10.1314 11.4951C10.2686 10.7297 10.4786 9.92829 10.812 9.30686ZM3 8.57143C3 8.45776 3.04515 8.34876 3.12553 8.26838C3.2059 8.18801 3.31491 8.14286 3.42857 8.14286H7.71429C7.82795 8.14286 7.93696 8.18801 8.01733 8.26838C8.0977 8.34876 8.14286 8.45776 8.14286 8.57143V8.64514L8.13857 8.84143C8.13248 9.07301 8.12248 9.30447 8.10857 9.53571C8.07429 10.1074 8.00571 10.8754 7.86857 11.6477C7.73143 12.4131 7.52143 13.2154 7.188 13.8369C6.85971 14.4497 6.34457 15 5.57143 15C4.79829 15 4.28314 14.4497 3.95486 13.836C3.62143 13.2146 3.41143 12.4123 3.27429 11.6469C3.13714 10.8746 3.06857 10.1057 3.03429 9.534C3.01647 9.23771 3.00504 8.94107 3 8.64429L3 8.57143Z" fill="black"/>
</svg>
